# xmcd CD database file
#
# Track frame offsets:
#	150
#	16398
#	33938
#	50923
#	68040
#	82973
#	98178
#	113930
#	132048
#	147620
#	160875
#	176360
#	187913
#	206533
#	219985
#	239645
#	253843
#	267510
#	284478
#	297313
#	314838
#
# Disc length: 4424 seconds
#
# Revision: 1
# Processed by: cddbd v1.5.2PL0 Copyright (c) Steve Scherf et al.
# Submitted via: CDex 1.70beta2
#
DISCID=47114615
DTITLE=ChartBreakers - ChartBreakers CGC-527
DYEAR=1900
DGENRE=Country
TTITLE0=Alabama - TLC ASAP
TTITLE1=Garth Brooks - Standing Outside The Fire
TTITLE2=Vince Gill - Tryin' To Get Over You
TTITLE3=Neal McCoy - No Doubt About It
TTITLE4=Reba McEntire - They Asked About You
TTITLE5=Mark Chesnutt - I Just Wanted You To Know
TTITLE6=Billy Dean - We Just Disagree
TTITLE7=Faith Hill - Piece Of My Heart
TTITLE8=Alan Jackson - (Who Says) You Can't Have It All
TTITLE9=Toby Keith - A Little Less Talk And A Lot More Action
TTITLE10=Sammy Kershaw - I Can't Reach Her Anymore
TTITLE11=Tracy Lawrence - If The Good Die Young
TTITLE12=Little Texas - My Love
TTITLE13=Patty Loveless - You Will
TTITLE14=John Michael Montgomery - I Swear
TTITLE15=Martina McBride - Life #9
TTITLE16=Tim McGraw - Indian Outlaw
TTITLE17=Lee Roy Parnell - I'm Holding My Own
TTITLE18=Shenandoah - If Bubba Can Dance (I Can Too)
TTITLE19=George Strait - I'd Like To Have That One Back
TTITLE20=Tanya Tucker - We Don't Have To Do This
EXTD=YEAR: 1900
EXTT0=
EXTT1=
EXTT2=
EXTT3=
EXTT4=
EXTT5=
EXTT6=
EXTT7=
EXTT8=
EXTT9=
EXTT10=
EXTT11=
EXTT12=
EXTT13=
EXTT14=
EXTT15=
EXTT16=
EXTT17=
EXTT18=
EXTT19=
EXTT20=
PLAYORDER=
